<?xml version="1.0" encoding="iso-8859-1"?>
<!-- Generator: Adobe Illustrator 16.0.0, SVG Export Plug-In . SVG Version: 6.00 Build 0)  -->
<!DOCTYPE svg PUBLIC "-//W3C//DTD SVG 1.1//EN" "http://www.w3.org/Graphics/SVG/1.1/DTD/svg11.dtd">
<svg version="1.1" id="Capa_1" xmlns="http://www.w3.org/2000/svg" xmlns:xlink="http://www.w3.org/1999/xlink" x="0px" y="0px"
	 width="493.346px" height="493.346px" viewBox="0 0 493.346 493.346" style="enable-background:new 0 0 493.346 493.346;"
	 xml:space="preserve">
<g>
	<g>
		<g id="Icons_28_">
			<path d="M246.668,0c-91.5,0-165.953,74.45-165.953,165.963c0,37.489,12.282,72.893,35.534,102.375
				c17.224,21.854,33.731,45.992,47.699,69.812l0.226,0.387v97.18c0,9.08,7.373,16.442,16.446,16.442h18.398
				c1.031,22.894,19.784,41.188,42.934,41.188h9.456c23.155,0,41.891-18.296,42.92-41.188h18.397
				c9.073,0,16.446-7.363,16.446-16.442V338.56l0.225-0.409c14.175-24.141,30.218-47.632,47.713-69.805
				c23.254-29.479,35.521-64.882,35.521-102.382C412.627,74.449,338.188,0,246.668,0z M296.286,346.273v24.233h-99.229v-24.233
				H296.286z M197.057,419.271v-24.1h99.229v24.1H197.057z M351.295,247.984c-16.459,20.857-31.696,42.823-45.412,65.406h-46.88
				v-96.907l72.863-72.873c4.812-4.816,4.812-12.62,0-17.436c-4.82-4.816-12.623-4.816-17.438,0l-67.763,67.763l-67.756-67.763
				c-4.813-4.816-12.616-4.816-17.436,0c-4.813,4.816-4.813,12.619,0,17.436l72.862,72.873v96.907h-46.879
				c-13.62-22.423-29.191-44.887-45.392-65.415c-18.63-23.626-28.468-51.98-28.468-82.014c0-73.385,59.694-133.082,133.068-133.082
				c73.381,0,133.075,59.697,133.075,133.082C379.744,195.994,369.919,224.36,351.295,247.984z"/>
		</g>
	</g>
</g>
<g>
</g>
<g>
</g>
<g>
</g>
<g>
</g>
<g>
</g>
<g>
</g>
<g>
</g>
<g>
</g>
<g>
</g>
<g>
</g>
<g>
</g>
<g>
</g>
<g>
</g>
<g>
</g>
<g>
</g>
</svg>
